<svg xmlns="http://www.w3.org/2000/svg" xmlns:xlink="http://www.w3.org/1999/xlink" width="1080" zoomAndPan="magnify" viewBox="0 0 810 389.999986" height="520" preserveAspectRatio="xMidYMid meet" version="1.0"><defs><g/><clipPath id="5ae003a890"><path d="M 705.011719 163 L 774.761719 163 L 774.761719 226 L 705.011719 226 Z M 705.011719 163 " clip-rule="nonzero"/></clipPath></defs><g fill="#5e17eb" fill-opacity="1"><g transform="translate(0.0000149538, 258.987806)"><g><path d="M 24.820312 0 C 29.730469 0 33.84375 -3.980469 33.84375 -8.890625 L 33.84375 -125.6875 C 33.84375 -134.046875 37.027344 -141.480469 42.734375 -147.1875 C 48.175781 -152.628906 56.007812 -155.8125 64.105469 -155.8125 C 72.199219 -155.8125 79.765625 -152.496094 85.472656 -146.789062 C 90.914062 -141.347656 94.363281 -133.648438 94.363281 -125.6875 L 94.363281 -9.023438 C 94.363281 -4.113281 98.210938 0 103.390625 0 C 108.566406 0 112.679688 -4.113281 112.679688 -9.023438 L 112.679688 -125.554688 C 112.679688 -133.515625 115.996094 -141.347656 121.304688 -146.789062 C 126.746094 -152.496094 134.179688 -155.8125 142.542969 -155.8125 C 150.902344 -155.8125 158.601562 -152.496094 164.042969 -147.054688 C 169.75 -141.347656 172.933594 -133.914062 172.933594 -125.554688 L 172.933594 -8.890625 C 172.933594 -3.980469 177.046875 0 182.222656 0 C 187.136719 0 191.25 -3.980469 191.25 -8.890625 L 191.25 -126.214844 C 191.25 -139.355469 186.074219 -151.566406 177.179688 -160.457031 C 168.289062 -169.351562 155.945312 -174.660156 142.675781 -174.660156 C 126.746094 -174.660156 112.8125 -166.828125 103.390625 -154.085938 C 93.964844 -166.828125 80.03125 -174.660156 64.105469 -174.660156 C 50.964844 -174.660156 38.886719 -169.484375 29.863281 -160.457031 C 20.96875 -151.566406 15.660156 -139.355469 15.660156 -126.214844 L 15.660156 -8.890625 C 15.660156 -3.980469 19.640625 0 24.820312 0 Z M 24.820312 0 "/></g></g></g><g fill="#5e17eb" fill-opacity="1"><g transform="translate(206.91043, 258.987806)"><g><path d="M 70.738281 1.59375 C 77.773438 1.59375 84.011719 0.929688 89.71875 -0.53125 C 94.230469 -1.726562 99.007812 -3.714844 104.183594 -6.636719 C 106.972656 -8.230469 108.433594 -10.617188 108.433594 -13.804688 C 108.433594 -18.582031 104.582031 -23.09375 99.804688 -23.09375 C 97.949219 -23.09375 96.089844 -22.5625 94.363281 -21.5 C 90.25 -19.246094 86.800781 -17.652344 83.746094 -16.855469 C 80.429688 -15.925781 76.046875 -15.394531 70.738281 -15.394531 C 59.457031 -15.394531 48.839844 -19.640625 40.480469 -26.941406 C 32.382812 -34.242188 26.941406 -44.0625 25.480469 -55.078125 L 127.144531 -55.078125 C 132.320312 -55.078125 135.773438 -58.796875 135.773438 -63.574219 C 135.640625 -80.960938 128.339844 -97.285156 116.527344 -109.097656 C 104.449219 -120.90625 88.125 -128.074219 70.738281 -128.074219 C 53.222656 -128.074219 36.761719 -120.90625 24.953125 -109.097656 C 12.875 -97.019531 5.839844 -80.695312 5.839844 -63.175781 C 5.839844 -45.65625 12.875 -29.199219 24.953125 -17.386719 C 36.761719 -5.574219 53.222656 1.59375 70.738281 1.59375 Z M 24.953125 -69.945312 C 26.144531 -81.09375 31.585938 -91.578125 39.683594 -99.007812 C 48.042969 -106.574219 58.925781 -111.085938 71.003906 -111.085938 C 82.816406 -111.085938 93.964844 -106.707031 102.460938 -99.273438 C 110.953125 -91.84375 116.261719 -81.621094 117.722656 -69.945312 Z M 24.953125 -69.945312 "/></g></g></g><g fill="#5e17eb" fill-opacity="1"><g transform="translate(348.389905, 258.987806)"><g><path d="M 21.632812 0 C 26.410156 0 30.394531 -3.714844 30.527344 -8.890625 L 30.792969 -86.800781 L 30.792969 -87.59375 C 30.660156 -87.726562 30.660156 -87.992188 30.660156 -88.257812 C 31.1875 -94.097656 34.109375 -99.804688 38.355469 -103.917969 C 42.734375 -108.035156 48.441406 -110.421875 54.679688 -110.421875 C 61.449219 -110.421875 67.421875 -107.769531 71.800781 -102.992188 C 76.179688 -98.210938 78.703125 -91.976562 78.703125 -85.472656 L 78.703125 -9.023438 C 78.703125 -4.113281 82.550781 -0.132812 87.460938 -0.132812 C 92.242188 -0.132812 96.355469 -4.113281 96.355469 -9.023438 L 96.355469 -86.929688 C 96.222656 -87.0625 96.222656 -87.328125 96.222656 -87.59375 C 96.621094 -93.699219 99.007812 -99.007812 103.652344 -103.652344 C 108.035156 -107.902344 113.742188 -110.289062 119.980469 -110.289062 C 126.746094 -110.289062 132.984375 -107.636719 137.363281 -102.992188 C 141.746094 -98.34375 144.398438 -91.976562 144.398438 -85.605469 L 144.398438 -8.890625 C 144.398438 -3.714844 148.382812 0 153.292969 0 C 158.070312 0 162.183594 -3.714844 162.183594 -8.890625 L 162.183594 -87.0625 C 162.183594 -98.34375 157.539062 -108.699219 149.574219 -116.527344 C 141.746094 -124.09375 130.996094 -128.605469 119.847656 -128.605469 C 106.972656 -128.605469 95.027344 -122.5 87.195312 -112.546875 C 79.101562 -122.5 67.15625 -128.605469 54.28125 -128.605469 C 43 -128.605469 32.78125 -124.226562 24.953125 -116.394531 C 17.121094 -108.566406 12.742188 -98.210938 12.742188 -86.929688 L 12.742188 -8.890625 C 12.742188 -3.714844 16.722656 0 21.632812 0 Z M 21.632812 0 "/></g></g></g><g fill="#5e17eb" fill-opacity="1"><g transform="translate(521.456731, 258.987806)"><g><path d="M 76.710938 1.59375 C 94.230469 1.59375 110.6875 -5.574219 122.5 -17.386719 C 134.3125 -29.199219 141.347656 -45.523438 141.347656 -63.175781 C 141.347656 -80.828125 134.3125 -97.285156 122.5 -109.097656 C 110.6875 -120.90625 94.363281 -127.941406 76.710938 -127.941406 C 66.226562 -127.941406 56.273438 -124.890625 47.777344 -119.183594 C 39.152344 -113.476562 32.78125 -105.777344 29.464844 -96.886719 L 29.464844 -165.5 C 29.464844 -170.8125 25.878906 -174.660156 20.703125 -174.660156 C 15.792969 -174.660156 11.8125 -170.679688 11.8125 -165.5 L 11.8125 -63.042969 C 11.8125 -45.523438 18.847656 -29.199219 30.921875 -17.386719 C 42.734375 -5.574219 59.191406 1.59375 76.710938 1.59375 Z M 76.710938 -16.191406 C 63.839844 -16.191406 51.894531 -21.234375 43.265625 -30.128906 C 34.640625 -38.753906 29.464844 -50.566406 29.464844 -63.175781 C 29.464844 -76.046875 34.640625 -87.859375 43.265625 -96.488281 C 51.894531 -105.113281 63.839844 -110.15625 76.710938 -110.15625 C 89.851562 -110.15625 101.53125 -105.113281 110.15625 -96.488281 C 118.785156 -87.859375 123.828125 -76.046875 123.828125 -63.175781 C 123.828125 -50.566406 118.785156 -38.753906 110.15625 -30.128906 C 101.53125 -21.234375 89.851562 -16.191406 76.710938 -16.191406 Z M 76.710938 -16.191406 "/></g></g><g transform="translate(668.643164, 258.987806)"><g><path d="M 70.605469 1.59375 C 88.257812 1.59375 104.714844 -5.574219 116.527344 -17.386719 C 128.339844 -29.199219 135.375 -45.523438 135.375 -63.042969 C 135.375 -80.695312 128.339844 -97.019531 116.527344 -109.097656 C 104.714844 -120.90625 88.257812 -128.074219 70.605469 -128.074219 C 53.089844 -128.074219 37.027344 -121.171875 24.953125 -109.097656 C 12.875 -97.285156 5.839844 -80.695312 5.839844 -63.042969 C 5.839844 -45.523438 12.875 -29.199219 24.953125 -17.386719 C 37.027344 -5.308594 53.089844 1.59375 70.605469 1.59375 Z M 70.605469 -16.058594 C 57.734375 -16.058594 45.921875 -21.101562 37.292969 -29.996094 C 28.667969 -38.621094 23.492188 -50.433594 23.492188 -63.042969 C 23.492188 -75.78125 28.667969 -87.726562 37.292969 -96.355469 C 45.921875 -104.980469 57.734375 -110.15625 70.605469 -110.15625 C 83.480469 -110.15625 95.558594 -104.980469 104.183594 -96.355469 C 112.679688 -87.726562 117.722656 -75.78125 117.722656 -63.042969 C 117.722656 -50.433594 112.679688 -38.621094 104.183594 -29.996094 C 95.558594 -21.101562 83.746094 -16.058594 70.605469 -16.058594 Z M 70.605469 -16.058594 "/></g></g></g><g clip-path="url(#5ae003a890)"><path fill="#5e17eb" d="M 736.054688 165.046875 C 734.269531 166.828125 734 169.203125 735.296875 171.25 C 736.054688 172.382812 735.839844 173.300781 732.214844 184.410156 L 728.269531 196.332031 L 723.402344 194.175781 C 720.753906 192.933594 718.324219 191.800781 718.105469 191.53125 C 717.621094 191.101562 718.753906 182.363281 719.296875 182.363281 C 719.457031 182.363281 721.1875 183.332031 723.078125 184.464844 C 724.972656 185.652344 726.863281 186.460938 727.242188 186.300781 C 728.808594 185.707031 727.890625 184.195312 724.753906 182.199219 C 721.996094 180.476562 721.511719 179.988281 721.511719 178.585938 C 721.511719 175.351562 716.808594 174.273438 715.457031 177.238281 C 715.023438 178.207031 715.023438 178.964844 715.566406 180.203125 C 716.105469 181.5 716.105469 182.683594 715.566406 186.136719 L 714.917969 190.398438 L 713.402344 189.644531 C 712.484375 189.15625 711.78125 188.296875 711.617188 187.214844 C 711.132812 184.949219 709.078125 184.035156 707.183594 185.273438 C 706.429688 185.8125 705.617188 186.570312 705.457031 187 C 705.023438 188.132812 706.210938 190.507812 707.402344 190.828125 C 708.160156 190.992188 709.292969 194.226562 712.589844 205.339844 C 717.347656 221.410156 717.511719 221.628906 723.292969 223.785156 C 730.160156 226.375 745.460938 226.699219 754.054688 224.484375 C 758.273438 223.40625 763.03125 221.304688 764.058594 220.007812 C 764.382812 219.632812 766.164062 212.996094 767.949219 205.339844 C 769.734375 197.625 771.300781 191.316406 771.355469 191.316406 C 773.679688 190.507812 774.761719 188.886719 774.273438 187 C 773.625 184.304688 769.140625 184.035156 768.273438 186.675781 C 768.113281 187.269531 767.246094 188.132812 766.382812 188.566406 C 764.652344 189.480469 764.8125 189.75 763.679688 184.628906 C 763.136719 182.417969 763.191406 181.445312 763.679688 180.152344 C 764.542969 178.101562 763.730469 176.050781 761.785156 175.566406 C 760.109375 175.136719 757.730469 176.589844 757.730469 177.992188 C 757.730469 178.53125 756.328125 180.042969 754.433594 181.5 C 752.648438 182.902344 751.246094 184.304688 751.40625 184.683594 C 751.839844 185.976562 753.40625 185.597656 756.273438 183.550781 C 757.894531 182.363281 759.460938 181.554688 759.734375 181.714844 C 760.328125 182.09375 762.4375 190.832031 762.003906 191.152344 C 761.300781 191.746094 753.785156 195.847656 753.460938 195.847656 C 753.300781 195.847656 750.703125 190.507812 747.785156 184.035156 C 742.703125 172.707031 742.542969 172.113281 743.351562 170.925781 C 744.703125 169.039062 744.433594 166.828125 742.648438 165.046875 C 740.488281 162.945312 738.21875 162.945312 736.054688 165.046875 Z M 745.839844 186.40625 C 749.03125 193.472656 751.894531 199.40625 752.164062 199.460938 C 752.433594 199.566406 756.164062 197.679688 760.382812 195.253906 C 764.597656 192.828125 768.167969 190.9375 768.21875 191.046875 C 768.328125 191.15625 767.84375 193.582031 767.195312 196.386719 C 766.542969 199.191406 765.085938 205.285156 764.003906 209.925781 L 762.003906 218.339844 L 759.894531 219.523438 C 750.976562 224.488281 726.429688 224.433594 720.699219 219.417969 C 719.621094 218.5 718.59375 215.640625 715.566406 205.554688 C 713.457031 198.597656 711.835938 192.71875 711.890625 192.503906 C 711.996094 192.285156 715.835938 193.796875 720.429688 195.847656 C 725.027344 197.949219 729.132812 199.566406 729.566406 199.460938 C 730 199.40625 731.945312 194.390625 734.539062 186.40625 C 736.863281 179.289062 738.757812 173.355469 738.8125 173.300781 C 738.8125 173.191406 739.082031 173.191406 739.40625 173.300781 C 739.730469 173.410156 742.648438 179.289062 745.839844 186.40625 Z M 745.839844 186.40625 " fill-opacity="1" fill-rule="nonzero"/></g></svg>