<svg xmlns="http://www.w3.org/2000/svg" xmlns:xlink="http://www.w3.org/1999/xlink" width="500" zoomAndPan="magnify" viewBox="0 0 375 374.999991" height="500" preserveAspectRatio="xMidYMid meet" version="1.0"><defs><g/></defs><g fill="#5e17eb" fill-opacity="1"><g transform="translate(3.194958, 354.363264)"><g><path d="M 184.125 4.152344 C 230.15625 4.152344 273.070312 -14.535156 303.875 -45.339844 C 334.675781 -76.140625 353.019531 -118.710938 353.019531 -164.398438 C 353.019531 -210.429688 334.675781 -252.996094 303.875 -284.492188 C 273.070312 -315.296875 230.15625 -333.984375 184.125 -333.984375 C 138.4375 -333.984375 96.5625 -315.988281 65.066406 -284.492188 C 33.570312 -253.691406 15.226562 -210.429688 15.226562 -164.398438 C 15.226562 -118.710938 33.570312 -76.140625 65.066406 -45.339844 C 96.5625 -13.84375 138.4375 4.152344 184.125 4.152344 Z M 184.125 -41.878906 C 150.554688 -41.878906 119.75 -55.03125 97.253906 -78.21875 C 74.757812 -100.714844 61.257812 -131.515625 61.257812 -164.398438 C 61.257812 -197.621094 74.757812 -228.769531 97.253906 -251.265625 C 119.75 -273.765625 150.554688 -287.261719 184.125 -287.261719 C 217.695312 -287.261719 249.191406 -273.765625 271.6875 -251.265625 C 293.835938 -228.769531 306.988281 -197.621094 306.988281 -164.398438 C 306.988281 -131.515625 293.835938 -100.714844 271.6875 -78.21875 C 249.191406 -55.03125 218.386719 -41.878906 184.125 -41.878906 Z M 184.125 -41.878906 "/></g></g></g><path fill="#5e17eb" d="M 177.363281 109.429688 C 172.703125 114.097656 171.996094 120.324219 175.386719 125.703125 C 177.363281 128.671875 176.800781 131.078125 167.335938 160.226562 L 157.023438 191.5 L 144.308594 185.839844 C 137.386719 182.585938 131.03125 179.613281 130.464844 178.90625 C 129.191406 177.773438 132.160156 154.851562 133.570312 154.851562 C 133.996094 154.851562 138.515625 157.398438 143.460938 160.367188 C 148.402344 163.480469 153.347656 165.605469 154.335938 165.179688 C 158.433594 163.625 156.03125 159.660156 147.839844 154.425781 C 140.632812 149.898438 139.363281 148.625 139.363281 144.945312 C 139.363281 136.457031 127.074219 133.625 123.539062 141.40625 C 122.410156 143.953125 122.410156 145.933594 123.824219 149.191406 C 125.238281 152.585938 125.238281 155.699219 123.824219 164.757812 L 122.128906 175.933594 L 118.175781 173.953125 C 115.773438 172.679688 113.9375 170.417969 113.511719 167.585938 C 112.242188 161.640625 106.871094 159.238281 101.929688 162.492188 C 99.949219 163.90625 97.832031 165.886719 97.410156 167.019531 C 96.277344 169.988281 99.386719 176.214844 102.492188 177.066406 C 104.472656 177.488281 107.4375 185.980469 116.054688 215.128906 C 128.484375 257.296875 128.910156 257.863281 144.023438 263.523438 C 161.964844 270.316406 201.941406 271.167969 224.402344 265.363281 C 235.421875 262.535156 247.851562 257.015625 250.535156 253.617188 C 251.382812 252.628906 256.046875 235.222656 260.707031 215.128906 C 265.371094 194.894531 269.464844 178.339844 269.609375 178.339844 C 275.679688 176.21875 278.507812 171.972656 277.234375 167.019531 C 275.539062 159.945312 263.8125 159.238281 261.554688 166.171875 C 261.128906 167.726562 258.867188 169.992188 256.609375 171.125 C 252.089844 173.53125 252.515625 174.238281 249.546875 160.792969 C 248.132812 154.992188 248.273438 152.445312 249.546875 149.050781 C 251.808594 143.671875 249.6875 138.296875 244.601562 137.019531 C 240.222656 135.890625 234.007812 139.710938 234.007812 143.390625 C 234.007812 144.804688 230.335938 148.765625 225.390625 152.585938 C 220.726562 156.265625 217.054688 159.945312 217.480469 160.9375 C 218.609375 164.332031 222.707031 163.34375 230.191406 157.964844 C 234.429688 154.851562 238.527344 152.730469 239.234375 153.152344 C 240.789062 154.144531 246.296875 177.066406 245.167969 177.914062 C 243.328125 179.472656 223.695312 190.226562 222.847656 190.226562 C 222.425781 190.226562 215.644531 176.21875 208.015625 159.238281 C 194.742188 129.523438 194.316406 127.964844 196.433594 124.851562 C 199.964844 119.898438 199.257812 114.097656 194.597656 109.425781 C 188.949219 103.910156 183.015625 103.910156 177.363281 109.429688 Z M 202.933594 165.464844 C 211.265625 184 218.757812 199.566406 219.460938 199.707031 C 220.167969 199.992188 229.914062 195.039062 240.933594 188.671875 C 251.949219 182.304688 261.273438 177.351562 261.414062 177.632812 C 261.699219 177.917969 260.425781 184.285156 258.730469 191.644531 C 257.035156 199 253.21875 214.988281 250.394531 227.160156 L 245.167969 249.234375 L 239.660156 252.347656 C 216.351562 265.367188 152.21875 265.222656 137.246094 252.066406 C 134.417969 249.660156 131.738281 242.160156 123.824219 215.699219 C 118.316406 197.441406 114.078125 182.019531 114.21875 181.453125 C 114.5 180.886719 124.53125 184.847656 136.539062 190.226562 C 148.546875 195.746094 159.28125 199.992188 160.410156 199.707031 C 161.539062 199.566406 166.625 186.40625 173.40625 165.464844 C 179.480469 146.785156 184.425781 131.21875 184.566406 131.078125 C 184.566406 130.796875 185.273438 130.796875 186.121094 131.078125 C 186.972656 131.359375 194.597656 146.785156 202.933594 165.464844 Z M 202.933594 165.464844 " fill-opacity="1" fill-rule="nonzero"/></svg>